<?xml version="1.0" encoding="UTF-8"?>
<!DOCTYPE svg PUBLIC "-//W3C//DTD SVG 1.1//EN" "http://www.w3.org/Graphics/SVG/1.1/DTD/svg11.dtd">
<!-- Creator: CorelDRAW X7 -->
<svg xmlns="http://www.w3.org/2000/svg" xml:space="preserve" width="1.3546mm" height="1.3546mm" version="1.1" style="shape-rendering:geometricPrecision; text-rendering:geometricPrecision; image-rendering:optimizeQuality; fill-rule:evenodd; clip-rule:evenodd"
viewBox="0 0 135 135"
 xmlns:xlink="http://www.w3.org/1999/xlink">
 <defs>
  <style type="text/css">
   <![CDATA[
    .fil1 {fill:#733925}
    .fil0 {fill:#733925;fill-rule:nonzero}
   ]]>
  </style>
 </defs>
 <g id="Warstwa_x0020_1">
  <metadata id="CorelCorpID_0Corel-Layer"/>
  <g id="_1750967780144">
   <path class="fil0" d="M82 126l0 -20 1 0c2,5 3,9 5,12 3,5 8,8 13,8 4,0 7,-1 9,-4 3,-2 4,-5 4,-9 0,-2 -1,-3 -1,-5 -1,-2 -1,-3 -2,-4 -1,-2 -2,-3 -4,-4 -2,-1 -4,-3 -8,-4 -3,-2 -5,-3 -7,-4 -1,-1 -3,-2 -4,-3 -2,-3 -4,-7 -4,-11 0,-3 1,-5 2,-8 1,-2 2,-4 4,-6 4,-3 8,-5 12,-5 2,0 3,0 5,1 1,0 3,1 5,1 1,1 2,2 3,2 0,0 1,0 1,0 2,0 2,-1 3,-2l1 0 0 18 -1 0c-1,-3 -2,-5 -2,-7 -1,-1 -2,-3 -2,-4 -2,-2 -4,-4 -6,-6 -1,-1 -4,-1 -6,-1 -4,0 -6,1 -9,3 0,1 -1,2 -2,4 0,1 0,2 0,4 0,5 3,9 10,13l7 3c5,2 9,5 11,8 2,3 4,7 4,12 0,2 -1,5 -2,8 -2,4 -4,6 -7,8 -4,2 -8,3 -12,3 -4,0 -8,0 -12,-2 -2,-1 -3,-1 -4,-2 0,0 0,0 -1,0 -1,0 -2,1 -3,3l-1 0z"/>
   <path class="fil0" d="M81 15c0,2 -2,3 -6,3 -3,0 -9,-2 -20,-4 -5,3 -8,6 -8,10 0,3 1,4 2,5 3,0 4,0 5,0 3,0 5,0 5,1 0,0 -1,0 -3,0 -2,0 -4,0 -6,-1 -4,1 -7,2 -12,4 -11,6 -16,12 -16,21 0,5 3,9 9,10 -1,-2 -2,-4 -2,-6 0,-6 3,-11 9,-16 6,-5 12,-7 19,-7 4,0 6,1 8,2 2,2 3,4 3,7 0,5 -3,10 -9,15 -7,5 -14,7 -22,7 -1,0 -3,0 -4,0 3,3 7,5 12,5 4,0 7,0 9,-1l0 0c1,0 1,0 1,0 0,0 -1,1 -4,1 -2,1 -4,1 -6,1 -6,0 -10,-2 -14,-7 -4,-1 -8,-2 -10,-5 -3,-2 -4,-5 -4,-8 0,-4 2,-8 5,-12 4,-4 9,-7 14,-8 4,-2 8,-2 13,-3 -4,-1 -5,-4 -5,-7 0,-3 2,-7 7,-9 -7,-2 -13,-3 -17,-3 -9,0 -16,2 -22,7 -6,4 -9,9 -9,16 0,2 0,5 2,7 2,2 4,3 6,3 1,0 2,-1 2,-1 0,0 0,0 -1,0 -1,0 -2,-1 -2,-3 0,0 0,-1 1,-2 1,0 2,-1 3,-1 1,0 2,1 2,3 0,1 0,2 -1,3 -1,1 -3,2 -4,2 -3,0 -5,-2 -7,-4 -2,-3 -3,-6 -3,-9 0,-5 2,-10 7,-14 5,-6 13,-8 22,-8 6,0 13,1 22,3 4,-2 9,-3 14,-3 4,0 7,1 10,2 3,1 5,2 5,4zm-1 0c0,-1 -2,-2 -4,-3 -2,-1 -5,-2 -8,-2 -5,0 -9,1 -12,3 8,3 14,4 19,4 3,0 5,-1 5,-2zm-13 28c0,-2 -1,-4 -2,-5 -2,-1 -4,-2 -7,-2 -6,0 -12,2 -18,8 -6,5 -9,10 -9,16 0,1 0,3 1,5 2,0 4,0 5,0 7,0 14,-2 20,-7 7,-5 10,-10 10,-15z"/>
   <path class="fil1" d="M69 83c12,-30 29,-53 55,-70 2,-1 3,-2 5,-3l6 -3c-11,2 -31,17 -40,25 -23,22 -31,42 -45,70 -2,6 -11,20 -2,25 4,3 9,0 12,-3 2,-3 2,-9 2,-13 0,-10 3,-18 7,-28z"/>
  </g>
 </g>
</svg>
